<?xml version="1.0" encoding="UTF-8" standalone="no"?>
<!-- Created with Inkscape (http://www.inkscape.org/) -->

<svg
   width="102.69337mm"
   height="25.38542mm"
   viewBox="0 0 102.69337 25.38542"
   version="1.1"
   id="svg975"
   inkscape:version="1.1.2 (b8e25be833, 2022-02-05)"
   sodipodi:docname="logo.svg"
   xmlns:inkscape="http://www.inkscape.org/namespaces/inkscape"
   xmlns:sodipodi="http://sodipodi.sourceforge.net/DTD/sodipodi-0.dtd"
   xmlns="http://www.w3.org/2000/svg"
   xmlns:svg="http://www.w3.org/2000/svg">
  <sodipodi:namedview
     id="namedview977"
     pagecolor="#ffffff"
     bordercolor="#666666"
     borderopacity="1.0"
     inkscape:pageshadow="2"
     inkscape:pageopacity="0.0"
     inkscape:pagecheckerboard="0"
     inkscape:document-units="mm"
     showgrid="false"
     fit-margin-top="0"
     fit-margin-left="0"
     fit-margin-right="0"
     fit-margin-bottom="0"
     inkscape:zoom="0.74029882"
     inkscape:cx="185.73581"
     inkscape:cy="37.822565"
     inkscape:window-width="1920"
     inkscape:window-height="1017"
     inkscape:window-x="1912"
     inkscape:window-y="-8"
     inkscape:window-maximized="1"
     inkscape:current-layer="layer1" />
  <defs
     id="defs972" />
  <g
     inkscape:label="Capa 1"
     inkscape:groupmode="layer"
     id="layer1"
     transform="translate(-53.72913,-138.84516)">
    <g
       id="g1221"
       inkscape:export-filename="C:\Users\FANSAT\Desktop\inntar_web\img\logo.png"
       inkscape:export-xdpi="128"
       inkscape:export-ydpi="128">
      <rect
         style="fill:#000080;fill-opacity:1;stroke:none;stroke-width:0.912302;stroke-linecap:round;stroke-linejoin:round;stroke-miterlimit:4;stroke-dasharray:none;paint-order:normal"
         id="rect228872-6-4-5-5-9"
         width="89.770149"
         height="20.279388"
         x="53.72913"
         y="138.87054" />
      <path
         style="fill:#ffffff;stroke:#000080;stroke-width:1.3395;stroke-linecap:butt;stroke-linejoin:miter;stroke-miterlimit:4;stroke-dasharray:none;stroke-opacity:1;paint-order:normal"
         d="m 140.75232,158.5164 h 9.69002 l 4.84502,-8.77032 -9.69002,-2e-5 z"
         id="path985-0-6-13-8-0-0-9-1" />
      <path
         style="fill:#ffffff;stroke:#000080;stroke-width:1.3395;stroke-linecap:butt;stroke-linejoin:miter;stroke-miterlimit:4;stroke-dasharray:none;stroke-opacity:1;paint-order:normal"
         d="m 140.76503,139.51491 h 9.67308 l 4.83653,9.09318 -9.67308,2e-5 z"
         id="path985-2-4-6-7-3-9-2-1-4" />
      <rect
         style="fill:#ffffff;fill-opacity:1;fill-rule:evenodd;stroke:#000080;stroke-width:1.48998;stroke-linejoin:miter;stroke-miterlimit:4;stroke-dasharray:none;stroke-opacity:1;paint-order:normal"
         id="rect846-2-1-8-9-9-5-8-16-0"
         width="4.5801177"
         height="4.5801177"
         x="239.67918"
         y="-77.078423"
         transform="matrix(0.45337594,0.89131939,-0.45337594,0.89131939,0,0)" />
      <path
         style="fill:#ffffff;fill-opacity:1;stroke:#000080;stroke-width:1.3395;stroke-linecap:butt;stroke-linejoin:miter;stroke-miterlimit:4;stroke-dasharray:none;stroke-opacity:1;paint-order:normal"
         d="m 143.61178,153.09435 h 4.15304 l 2.07651,-4.08235 h -4.15304 z"
         id="path985-0-6-7-99-1-7-7-5-1" />
      <path
         style="fill:#ffffff;fill-opacity:1;stroke:#000080;stroke-width:1.3395;stroke-linecap:butt;stroke-linejoin:miter;stroke-miterlimit:4;stroke-dasharray:none;stroke-opacity:1;paint-order:normal"
         d="m 143.61178,144.92965 h 4.15304 l 2.07651,4.08235 h -4.15304 z"
         id="path985-2-4-6-1-0-8-5-4-2-9" />
      <g
         aria-label="INNTAR"
         id="text2208-6-2-6-1-9-4-4-7-9"
         style="font-size:20.6449px;line-height:1.25;letter-spacing:-0.550467px;fill:#ffffff;stroke-width:0.516123">
        <path
           d="m 56.349048,141.41477 h 4.576555 v 14.77804 h -4.576555 z"
           style="font-weight:900;font-family:Arial;-inkscape-font-specification:'Arial Heavy'"
           id="path1085" />
        <path
           d="m 63.681546,141.41477 h 4.264058 l 5.564446,8.1753 v -8.1753 h 4.304381 v 14.77804 H 73.51005 l -5.534204,-8.11482 v 8.11482 h -4.2943 z"
           style="font-weight:900;font-family:Arial;-inkscape-font-specification:'Arial Heavy'"
           id="path1087" />
        <path
           d="m 80.328441,141.41477 h 4.264058 l 5.564446,8.1753 v -8.1753 h 4.304381 v 14.77804 h -4.304381 l -5.534204,-8.11482 v 8.11482 h -4.2943 z"
           style="font-weight:900;font-family:Arial;-inkscape-font-specification:'Arial Heavy'"
           id="path1089" />
        <path
           d="m 95.906802,141.41477 h 13.880868 v 3.64915 h -4.65719 v 11.12889 H 100.564 v -11.12889 h -4.657198 z"
           style="font-weight:900;font-family:Arial;-inkscape-font-specification:'Arial Heavy'"
           id="path1091" />
        <path
           d="m 118.99515,153.75332 h -5.20155 l -0.71571,2.43949 h -4.66728 l 5.55436,-14.77804 h 4.97978 l 5.55436,14.77804 h -4.77816 z m -0.95765,-3.19552 -1.63304,-5.31243 -1.62297,5.31243 z"
           style="font-weight:900;font-family:Arial;-inkscape-font-specification:'Arial Heavy'"
           id="path1093" />
        <path
           d="m 125.4708,156.19281 v -14.77804 h 7.61079 q 2.11691,0 3.23585,0.3629 1.11894,0.3629 1.80441,1.35079 0.68548,0.97781 0.68548,2.38908 0,1.22983 -0.52419,2.12699 -0.52419,0.88709 -1.44151,1.44152 -0.58467,0.35281 -1.60281,0.58467 0.81653,0.27217 1.18951,0.54434 0.25201,0.18145 0.72579,0.7762 0.48387,0.59475 0.64516,0.91733 l 2.20763,4.28422 h -5.16123 l -2.43948,-4.51607 q -0.4637,-0.87701 -0.8266,-1.1391 -0.49395,-0.34274 -1.11894,-0.34274 h -0.40322 v 5.99791 z m 4.58664,-8.79021 h 1.92538 q 0.31249,0 1.20966,-0.20161 0.45362,-0.0907 0.73588,-0.46371 0.29233,-0.37297 0.29233,-0.85684 0,-0.71572 -0.45362,-1.09878 -0.45362,-0.38306 -1.70361,-0.38306 h -2.00602 z"
           style="font-weight:900;font-family:Arial;-inkscape-font-specification:'Arial Heavy'"
           id="path1095" />
      </g>
      <g
         aria-label="INNOVACIONES TECNOLÓGICAS"
         id="text105180-6-9-2-4-9-6"
         style="font-size:5.02874px;line-height:1.25;letter-spacing:0.73049px;stroke-width:0.125719">
        <path
           d="m 53.922371,164.16681 v -3.59968 h 0.72681 v 3.59968 z"
           style="font-weight:bold;font-family:Arial;-inkscape-font-specification:'Arial Bold'"
           id="path1116" />
        <path
           d="m 56.079471,164.16681 v -3.59968 h 0.707167 l 1.473263,2.40388 v -2.40388 h 0.675246 v 3.59968 h -0.729265 l -1.451165,-2.3474 v 2.3474 z"
           style="font-weight:bold;font-family:Arial;-inkscape-font-specification:'Arial Bold'"
           id="path1118" />
        <path
           d="m 60.441556,164.16681 v -3.59968 h 0.707167 l 1.473263,2.40388 v -2.40388 h 0.675246 v 3.59968 h -0.729265 l -1.451165,-2.3474 v 2.3474 z"
           style="font-weight:bold;font-family:Arial;-inkscape-font-specification:'Arial Bold'"
           id="path1120" />
        <path
           d="m 64.648948,162.38907 q 0,-0.55002 0.164515,-0.92324 0.122772,-0.27501 0.33394,-0.49355 0.213623,-0.21853 0.466533,-0.32412 0.336395,-0.14241 0.775919,-0.14241 0.795562,0 1.271917,0.49354 0.478811,0.49355 0.478811,1.37259 0,0.87168 -0.4739,1.36523 -0.473899,0.49109 -1.267006,0.49109 -0.802929,0 -1.276829,-0.48864 -0.4739,-0.49109 -0.4739,-1.35049 z m 0.748909,-0.0246 q 0,0.6114 0.282376,0.92815 0.282375,0.3143 0.716988,0.3143 0.434613,0 0.712078,-0.31184 0.27992,-0.3143 0.27992,-0.94044 0,-0.61877 -0.272554,-0.92324 -0.270098,-0.30447 -0.719444,-0.30447 -0.449345,0 -0.724354,0.30938 -0.27501,0.30693 -0.27501,0.92816 z"
           style="font-weight:bold;font-family:Arial;-inkscape-font-specification:'Arial Bold'"
           id="path1122" />
        <path
           d="m 70.356614,164.16681 -1.28665,-3.59968 h 0.788196 l 0.910968,2.66416 0.881503,-2.66416 h 0.771008 l -1.289106,3.59968 z"
           style="font-weight:bold;font-family:Arial;-inkscape-font-specification:'Arial Bold'"
           id="path1124" />
        <path
           d="m 76.395765,164.16681 h -0.790652 l -0.314296,-0.81766 H 73.85193 l -0.297109,0.81766 h -0.771008 l 1.402056,-3.59968 h 0.768553 z m -1.338215,-1.42416 -0.495998,-1.33575 -0.486177,1.33575 z"
           style="font-weight:bold;font-family:Arial;-inkscape-font-specification:'Arial Bold'"
           id="path1126" />
        <path
           d="m 79.81496,162.84333 0.704711,0.22344 q -0.162059,0.58931 -0.540197,0.87659 -0.375682,0.28484 -0.955166,0.28484 -0.716988,0 -1.178611,-0.48864 -0.461622,-0.49109 -0.461622,-1.34067 0,-0.89869 0.464078,-1.39469 0.464078,-0.49845 1.220353,-0.49845 0.660513,0 1.073027,0.39041 0.245544,0.23082 0.368316,0.66297 l -0.719444,0.17188 q -0.06384,-0.27992 -0.267643,-0.44198 -0.201346,-0.16205 -0.491088,-0.16205 -0.400236,0 -0.650691,0.28728 -0.247999,0.28729 -0.247999,0.93061 0,0.68262 0.245543,0.97236 0.245544,0.28974 0.638415,0.28974 0.289742,0 0.498454,-0.18416 0.208712,-0.18416 0.299564,-0.57948 z"
           style="font-weight:bold;font-family:Arial;-inkscape-font-specification:'Arial Bold'"
           id="path1128" />
        <path
           d="m 81.851744,164.16681 v -3.59968 h 0.72681 v 3.59968 z"
           style="font-weight:bold;font-family:Arial;-inkscape-font-specification:'Arial Bold'"
           id="path1130" />
        <path
           d="m 83.854152,162.38907 q 0,-0.55002 0.164515,-0.92324 0.122772,-0.27501 0.33394,-0.49355 0.213623,-0.21853 0.466533,-0.32412 0.336395,-0.14241 0.775919,-0.14241 0.795562,0 1.271917,0.49354 0.478811,0.49355 0.478811,1.37259 0,0.87168 -0.4739,1.36523 -0.473899,0.49109 -1.267006,0.49109 -0.802929,0 -1.276829,-0.48864 -0.4739,-0.49109 -0.4739,-1.35049 z m 0.748909,-0.0246 q 0,0.6114 0.282376,0.92815 0.282375,0.3143 0.716988,0.3143 0.434613,0 0.712078,-0.31184 0.27992,-0.3143 0.27992,-0.94044 0,-0.61877 -0.272554,-0.92324 -0.270098,-0.30447 -0.719444,-0.30447 -0.449345,0 -0.724354,0.30938 -0.27501,0.30693 -0.27501,0.92816 z"
           style="font-weight:bold;font-family:Arial;-inkscape-font-specification:'Arial Bold'"
           id="path1132" />
        <path
           d="m 88.650849,164.16681 v -3.59968 h 0.707167 l 1.473263,2.40388 v -2.40388 h 0.675246 v 3.59968 H 90.77726 l -1.451165,-2.3474 v 2.3474 z"
           style="font-weight:bold;font-family:Arial;-inkscape-font-specification:'Arial Bold'"
           id="path1134" />
        <path
           d="m 93.00557,164.16681 v -3.59968 h 2.669063 v 0.60895 H 93.73238 v 0.79802 h 1.807203 v 0.6065 H 93.73238 v 0.97972 h 2.011005 v 0.60649 z"
           style="font-weight:bold;font-family:Arial;-inkscape-font-specification:'Arial Bold'"
           id="path1136" />
        <path
           d="m 96.90603,162.99556 0.707166,-0.0688 q 0.06384,0.35604 0.257821,0.52301 0.196435,0.16697 0.52792,0.16697 0.351128,0 0.527919,-0.14733 0.179247,-0.14978 0.179247,-0.34867 0,-0.12768 -0.07612,-0.21608 -0.07366,-0.0908 -0.260277,-0.15714 -0.127683,-0.0442 -0.581939,-0.15715 -0.584395,-0.14487 -0.820117,-0.35604 -0.331484,-0.29711 -0.331484,-0.72436 0,-0.27501 0.154693,-0.51318 0.157148,-0.24064 0.449345,-0.36586 0.294653,-0.12523 0.709622,-0.12523 0.677701,0 1.019007,0.29711 0.343762,0.29711 0.36095,0.7931 l -0.72681,0.0319 q -0.04665,-0.27746 -0.201346,-0.39778 -0.152237,-0.12277 -0.459167,-0.12277 -0.316752,0 -0.495999,0.13014 -0.115406,0.0835 -0.115406,0.22344 0,0.12769 0.10804,0.21854 0.137504,0.1154 0.667879,0.24063 0.530375,0.12523 0.783285,0.26028 0.255366,0.13259 0.397781,0.36586 0.144871,0.23081 0.144871,0.57212 0,0.30938 -0.17188,0.57948 -0.171881,0.2701 -0.486177,0.40269 -0.314297,0.13014 -0.783286,0.13014 -0.682612,0 -1.048472,-0.3143 -0.365861,-0.31675 -0.437068,-0.92079 z"
           style="font-weight:bold;font-family:Arial;-inkscape-font-specification:'Arial Bold'"
           id="path1138" />
        <path
           d="m 104.11274,164.16681 v -2.99073 h -1.06812 v -0.60895 h 2.86059 v 0.60895 h -1.06566 v 2.99073 z"
           style="font-weight:bold;font-family:Arial;-inkscape-font-specification:'Arial Bold'"
           id="path1140" />
        <path
           d="m 107.10469,164.16681 v -3.59968 h 2.66906 v 0.60895 h -1.94225 v 0.79802 h 1.8072 v 0.6065 h -1.8072 v 0.97972 h 2.011 v 0.60649 z"
           style="font-weight:bold;font-family:Arial;-inkscape-font-specification:'Arial Bold'"
           id="path1142" />
        <path
           d="m 113.49251,162.84333 0.70471,0.22344 q -0.16206,0.58931 -0.54019,0.87659 -0.37569,0.28484 -0.95517,0.28484 -0.71699,0 -1.17861,-0.48864 -0.46162,-0.49109 -0.46162,-1.34067 0,-0.89869 0.46407,-1.39469 0.46408,-0.49845 1.22036,-0.49845 0.66051,0 1.07302,0.39041 0.24555,0.23082 0.36832,0.66297 l -0.71944,0.17188 q -0.0638,-0.27992 -0.26765,-0.44198 -0.20134,-0.16205 -0.49108,-0.16205 -0.40024,0 -0.6507,0.28728 -0.248,0.28729 -0.248,0.93061 0,0.68262 0.24555,0.97236 0.24554,0.28974 0.63841,0.28974 0.28974,0 0.49846,-0.18416 0.20871,-0.18416 0.29956,-0.57948 z"
           style="font-weight:bold;font-family:Arial;-inkscape-font-specification:'Arial Bold'"
           id="path1144" />
        <path
           d="m 115.55876,164.16681 v -3.59968 h 0.70716 l 1.47327,2.40388 v -2.40388 h 0.67524 v 3.59968 h -0.72926 l -1.45117,-2.3474 v 2.3474 z"
           style="font-weight:bold;font-family:Arial;-inkscape-font-specification:'Arial Bold'"
           id="path1146" />
        <path
           d="m 119.76615,162.38907 q 0,-0.55002 0.16452,-0.92324 0.12277,-0.27501 0.33394,-0.49355 0.21362,-0.21853 0.46653,-0.32412 0.3364,-0.14241 0.77592,-0.14241 0.79556,0 1.27192,0.49354 0.47881,0.49355 0.47881,1.37259 0,0.87168 -0.4739,1.36523 -0.4739,0.49109 -1.26701,0.49109 -0.80293,0 -1.27683,-0.48864 -0.4739,-0.49109 -0.4739,-1.35049 z m 0.74891,-0.0246 q 0,0.6114 0.28238,0.92815 0.28237,0.3143 0.71699,0.3143 0.43461,0 0.71207,-0.31184 0.27992,-0.3143 0.27992,-0.94044 0,-0.61877 -0.27255,-0.92324 -0.2701,-0.30447 -0.71944,-0.30447 -0.44935,0 -0.72436,0.30938 -0.27501,0.30693 -0.27501,0.92816 z"
           style="font-weight:bold;font-family:Arial;-inkscape-font-specification:'Arial Bold'"
           id="path1148" />
        <path
           d="m 124.57513,164.16681 v -3.57021 h 0.72681 v 2.96372 h 1.8072 v 0.60649 z"
           style="font-weight:bold;font-family:Arial;-inkscape-font-specification:'Arial Bold'"
           id="path1150" />
        <path
           d="m 128.2104,162.38907 q 0,-0.55002 0.16452,-0.92324 0.12277,-0.27501 0.33394,-0.49355 0.21362,-0.21853 0.46653,-0.32412 0.3364,-0.14241 0.77592,-0.14241 0.79556,0 1.27192,0.49354 0.47881,0.49355 0.47881,1.37259 0,0.87168 -0.4739,1.36523 -0.4739,0.49109 -1.26701,0.49109 -0.80293,0 -1.27683,-0.48864 -0.4739,-0.49109 -0.4739,-1.35049 z m 0.74891,-0.0246 q 0,0.6114 0.28238,0.92815 0.28238,0.3143 0.71699,0.3143 0.43461,0 0.71208,-0.31184 0.27992,-0.3143 0.27992,-0.94044 0,-0.61877 -0.27256,-0.92324 -0.2701,-0.30447 -0.71944,-0.30447 -0.44935,0 -0.72436,0.30938 -0.27501,0.30693 -0.27501,0.92816 z m 0.55002,-2.00364 0.33885,-0.73418 h 0.77347 l -0.67525,0.73418 z"
           style="font-weight:bold;font-family:Arial;-inkscape-font-specification:'Arial Bold'"
           id="path1152" />
        <path
           d="m 134.67435,162.84333 v -0.6065 h 1.56657 v 1.43398 q -0.22836,0.22099 -0.66297,0.39042 -0.43216,0.16697 -0.87659,0.16697 -0.56475,0 -0.98463,-0.23573 -0.41988,-0.23817 -0.63105,-0.6777 -0.21117,-0.44198 -0.21117,-0.96008 0,-0.56229 0.23572,-0.99936 0.23572,-0.43707 0.68998,-0.67033 0.34622,-0.17925 0.86186,-0.17925 0.67033,0 1.04602,0.28237 0.37813,0.27992 0.48617,0.77592 l -0.7219,0.13505 q -0.0761,-0.26518 -0.28728,-0.41742 -0.20871,-0.15469 -0.52301,-0.15469 -0.47636,0 -0.75873,0.30201 -0.27992,0.30202 -0.27992,0.89624 0,0.64087 0.28483,0.96253 0.28483,0.31921 0.74645,0.31921 0.22836,0 0.45672,-0.0884 0.23081,-0.0909 0.39532,-0.21853 v -0.45671 z"
           style="font-weight:bold;font-family:Arial;-inkscape-font-specification:'Arial Bold'"
           id="path1154" />
        <path
           d="m 137.61964,164.16681 v -3.59968 h 0.72681 v 3.59968 z"
           style="font-weight:bold;font-family:Arial;-inkscape-font-specification:'Arial Bold'"
           id="path1156" />
        <path
           d="m 142.07258,162.84333 0.70471,0.22344 q -0.16206,0.58931 -0.5402,0.87659 -0.37568,0.28484 -0.95516,0.28484 -0.71699,0 -1.17861,-0.48864 -0.46163,-0.49109 -0.46163,-1.34067 0,-0.89869 0.46408,-1.39469 0.46408,-0.49845 1.22035,-0.49845 0.66052,0 1.07303,0.39041 0.24554,0.23082 0.36832,0.66297 l -0.71945,0.17188 q -0.0638,-0.27992 -0.26764,-0.44198 -0.20135,-0.16205 -0.49109,-0.16205 -0.40023,0 -0.65069,0.28728 -0.248,0.28729 -0.248,0.93061 0,0.68262 0.24555,0.97236 0.24554,0.28974 0.63841,0.28974 0.28974,0 0.49845,-0.18416 0.20872,-0.18416 0.29957,-0.57948 z"
           style="font-weight:bold;font-family:Arial;-inkscape-font-specification:'Arial Bold'"
           id="path1158" />
        <path
           d="m 147.37755,164.16681 h -0.79065 l -0.3143,-0.81766 h -1.43889 l -0.2971,0.81766 h -0.77101 l 1.40205,-3.59968 h 0.76856 z m -1.33821,-1.42416 -0.496,-1.33575 -0.48618,1.33575 z"
           style="font-weight:bold;font-family:Arial;-inkscape-font-specification:'Arial Bold'"
           id="path1160" />
        <path
           d="m 148.30938,162.99556 0.70717,-0.0688 q 0.0638,0.35604 0.25782,0.52301 0.19644,0.16697 0.52792,0.16697 0.35113,0 0.52792,-0.14733 0.17925,-0.14978 0.17925,-0.34867 0,-0.12768 -0.0761,-0.21608 -0.0737,-0.0908 -0.26028,-0.15714 -0.12768,-0.0442 -0.58194,-0.15715 -0.58439,-0.14487 -0.82011,-0.35604 -0.33149,-0.29711 -0.33149,-0.72436 0,-0.27501 0.1547,-0.51318 0.15714,-0.24064 0.44934,-0.36586 0.29465,-0.12523 0.70962,-0.12523 0.6777,0 1.01901,0.29711 0.34376,0.29711 0.36095,0.7931 l -0.72681,0.0319 q -0.0466,-0.27746 -0.20135,-0.39778 -0.15223,-0.12277 -0.45916,-0.12277 -0.31676,0 -0.496,0.13014 -0.11541,0.0835 -0.11541,0.22344 0,0.12769 0.10804,0.21854 0.13751,0.1154 0.66788,0.24063 0.53038,0.12523 0.78329,0.26028 0.25536,0.13259 0.39778,0.36586 0.14487,0.23081 0.14487,0.57212 0,0.30938 -0.17188,0.57948 -0.17188,0.2701 -0.48618,0.40269 -0.3143,0.13014 -0.78328,0.13014 -0.68262,0 -1.04848,-0.3143 -0.36586,-0.31675 -0.43707,-0.92079 z"
           style="font-weight:bold;font-family:Arial;-inkscape-font-specification:'Arial Bold'"
           id="path1162" />
      </g>
    </g>
  </g>
</svg>
